<?xml version="1.0" encoding="utf-8"?>
<!-- Generator: Adobe Illustrator 23.0.3, SVG Export Plug-In . SVG Version: 6.00 Build 0)  -->
<svg version="1.1" id="Layer_1" xmlns="http://www.w3.org/2000/svg" xmlns:xlink="http://www.w3.org/1999/xlink" x="0px" y="0px"
	 viewBox="0 0 32 32" style="enable-background:new 0 0 32 32;" xml:space="preserve">
<style type="text/css">
	.st0{fill:none;stroke:#CE3434;stroke-width:2;stroke-linejoin:round;}
</style>
<title>77-Interface</title>
<g id="_77-Interface">
	<path class="st0" d="M3,1h26c1.1,0,2,0.9,2,2v26c0,1.1-0.9,2-2,2H3c-1.1,0-2-0.9-2-2V3C1,1.9,1.9,1,3,1z"/>
	<line class="st0" x1="1" y1="9" x2="31" y2="9"/>
	<line class="st0" x1="4" y1="5" x2="6" y2="5"/>
	<line class="st0" x1="8" y1="5" x2="10" y2="5"/>
	<line class="st0" x1="26" y1="5" x2="28" y2="5"/>
	<polyline class="st0" points="11,26 6,26 6,21 	"/>
	<line class="st0" x1="6" y1="26" x2="12" y2="20"/>
	<polyline class="st0" points="21,14 26,14 26,19 	"/>
	<line class="st0" x1="26" y1="14" x2="20" y2="20"/>
</g>
</svg>
